<?xml version="1.0" encoding="utf-8"?>
<!-- Generator: Adobe Illustrator 16.0.4, SVG Export Plug-In . SVG Version: 6.00 Build 0)  -->
<!DOCTYPE svg PUBLIC "-//W3C//DTD SVG 1.1//EN" "http://www.w3.org/Graphics/SVG/1.1/DTD/svg11.dtd">
<svg version="1.1" id="Layer_1" xmlns="http://www.w3.org/2000/svg" xmlns:xlink="http://www.w3.org/1999/xlink" x="0px" y="0px"
	 width="1224px" height="792px" viewBox="0 0 1224 792" enable-background="new 0 0 1224 792" xml:space="preserve">
<g>
	<path fill="#231F20" stroke="#231F20" stroke-miterlimit="10" d="M612.035,303.012c-8.5,0-33.086,0.461-37.68,0.461v-3.449
		l9.19-1.379c12.863-2.297,14.93-6.664,14.93-34.691V228.24H522.66v35.713c0,28.027,2.065,32.395,14.938,34.691l9.191,1.379v3.449
		c-4.598,0-29.18-0.461-37.676-0.461c-8.508,0-30.099,0.461-34.926,0.461v-3.449l8.038-1.379
		c11.259-2.066,13.328-7.578,13.328-34.691v-78.574c0-27.105-2.069-32.621-13.328-34.691l-8.038-1.375v-3.445
		c4.827,0,26.418,0.461,34.926,0.461c8.496,0,33.078-0.461,37.676-0.461v3.445l-9.191,1.375
		c-12.871,2.301-14.938,6.664-14.938,34.691v34.199h75.815v-34.199c0-28.027-2.065-32.391-14.93-34.691l-9.19-1.375v-3.445
		c4.594,0,29.18,0.461,37.68,0.461c8.496,0,30.098-0.461,34.918-0.461v3.445l-8.039,1.375c-11.258,2.07-13.324,7.586-13.324,34.691
		v78.574c0,27.113,2.066,32.625,13.324,34.691l8.039,1.379v3.449C642.133,303.473,620.531,303.012,612.035,303.012z"/>
	<g>
		<path fill="#231F20" stroke="#231F20" stroke-miterlimit="10" d="M384.102,251.289c0-41.383,0-149.987,0-149.987
			c-21.32,0-50.566-2.605-64.195,12.418c-11.031,12.18-24.258,36.592-24.258,36.592l-3.582-1.195l12.727-64.828
			c0,0,21.305,8.824,55.531,8.824c20.879,0,52.469,0,82.137,0c30.305,0,52.465-8.824,52.465-8.824l9.363,56.078h-4.75
			c-4.125-8.137-10.896-18.745-19.728-26.647c-15.112-13.52-42.87-12.418-64.19-12.418c0,0,0.129,110.061,0.129,149.108
			c0,39.035,2.684,44.234,23.156,47.762l11.487,1.863v3.516c0,0-31.711-0.586-49.129-0.586c-17.422,0-51.934,0.586-51.934,0.586
			v-3.516l11.488-1.863C381.57,294.473,384.102,289.367,384.102,251.289z"/>
	</g>
	<path fill="#231F20" stroke="#231F20" stroke-miterlimit="10" d="M799.328,261.141l-2.672-0.758
		c-2.805,5.597-5.908,10.268-8.898,14.294c-2.179,2.868-4.711,5.453-7.57,8.43c-2.57,2.676-5.039,4.826-7.444,6.56
		c-0.324,0.233-0.649,0.464-0.977,0.687c-9.601,6.521-18.25,6.479-28.45,6.479c-13.086,0-22.168-0.32-25.84-3.992
		c-3.68-3.684-5.707-7.974-5.707-24.291c0-16.317,0-42.89,0-42.89s5.195,0.055,14.816,0.383c9.625,0.32,17.621,0.859,24.109,8.535
		c6.487,7.676,10.293,22.401,10.293,22.401h2.867V188.26h-2.961c0,0-2.302,14.43-8.574,21.355
		c-6.267,6.918-13.297,7.777-24.863,8.32c-8.539,0.398-15.688,0.527-15.688,0.527V154.75c8.344-1.836,19.866-2.383,24.52-2.383
		c4.648,0,16.977-0.215,24.98,3.676c7.776,3.785,16.016,12.148,27.789,26.84l2.973-1.148l-14.543-35.695
		c0,0-61.531,0.289-70.547,0.289c-9.359,0-43.648-0.461-43.648-0.461v3.445l8.035,1.375c10.141,2.375,13.328,4.645,13.328,34.691
		c0,0,0,48.348,0,78.574c0,31.727-4.271,32.594-13.328,34.691c-6.074,1.414-8.035,1.379-8.035,1.379v3.449
		c0,0,34.934-0.547,46.938-0.547c11.996,0,77.957,0.32,77.957,0.32l0.127-0.477l0.119,0.04L799.328,261.141z"/>
	<path fill="#231F20" stroke="#231F20" stroke-miterlimit="10" d="M190.402,505.098c-30.422,0-34.078-0.926-48.664-0.926
		c-11.488,0-38.965,0.621-45.168,0.621v-3.355l10.863-1.862c15.211-2.793,18.008-10.246,18.008-46.879V345.207
		c0-36.629-2.797-44.992-18.008-47.785l-10.863-1.863v-3.746c6.203,0,27.16,0.617,38.957,0.617c12.414,0,28.176-0.617,42.461-0.617
		c75.754,0,122.945,39.039,122.945,108.266C300.934,470.25,255.91,505.098,190.402,505.098z M174.879,299.5
		c-7.449,0-13.656,0.625-18.004,1.555v158.777c0,30.738,7.141,38.168,37.879,38.168c41.602,0,70.477-30.156,70.477-96.281
		C265.23,334.652,232.008,299.5,174.879,299.5z"/>
	<g>
		<path fill="#231F20" stroke="#231F20" stroke-miterlimit="10" d="M1044.785,484.621c-10.465-13.285-23.41-36.738-30.531-45.664
			c-7.109-8.926-11.77-10.738-11.77-10.738s41.112-7.219,41.112-40.906c0-39.741-50.438-40.034-57.354-40.034
			c-6.922,0-19.406,0.229-32.23,0.229c-12.819,0-38.155-0.397-38.155-0.397v3.44l7.184,1.152c10.438,1.815,14.18,6.238,14.18,28.367
			c0,21.108,0,82.043,0,82.043c0,29.5-1.586,35.176-12.254,37.444l-9.108,1.703v3.449c0,0,24.086-0.461,34.922-0.461
			c10.84,0,37.684,0.461,37.684,0.461v-3.449l-8.348-1.25c-16.336-2.16-15.883-13.164-15.883-37.215
			c0-21.219,0.102-30.332,0.102-30.332s3.414-0.289,8.297,1.41c11.68,4.078,29.391,30.738,39.824,48.777
			c10.441,18.039,15.395,22.059,15.395,22.059s13.271-0.254,22.892-0.254s22.938,0.254,22.938,0.254l0.148-3.621
			C1073.824,501.09,1059.664,503.504,1044.785,484.621z M973.504,426.875c-4.91,0-9.172-0.746-9.172-0.746v-71.004
			c0,0,6.07-2.066,19.07-2.066c13.004,0,31.25,4.66,31.25,36.091C1014.652,430.93,978.426,426.875,973.504,426.875z"/>
	</g>
	<path fill="#231F20" stroke="#231F20" stroke-miterlimit="10" d="M594.496,620.875h-12.48l-0.293-7.152l19.469-0.94
		c27.781-2.527,48.595-13.426,48.595-52.035c0-36.945-18.316-54.73-45.949-54.73c-9.312,0-11.483,0.931-18.312,2.484v151.598
		c0,38.81,3.414,43.466,23.28,46.88l11.185,1.862v3.105c-5.902,0-35.5-0.621-46.992-0.621c-11.488,0-41.059,0.621-47.578,0.621
		v-3.105l10.867-1.862c15.211-2.798,18.008-10.246,18.008-46.88v-109.29c0-36.629-2.797-44.082-18.008-46.879L530,502.07v-3.105
		c6.52,0,32.125,0.617,43.926,0.617c11.488,0,21.224-0.309,35.5-0.309c46.262,0,73.646,19.562,73.646,59.604
		C683.07,611.734,631.352,621,594.496,620.875z"/>
	<g>
		<path fill="#231F20" stroke="#231F20" stroke-miterlimit="10" d="M842.934,601.676c-3.565-9.737-8.698-18.332-15.395-25.785
			c-6.696-7.452-14.852-13.395-24.469-17.823c-9.625-4.422-20.48-6.638-32.59-6.638c-11.117,0-21.695,1.879-31.738,5.638
			c-10.051,3.766-18.812,9.155-26.297,16.164c-7.48,7.012-13.426,15.573-17.84,25.684s-6.625,21.508-6.625,34.199
			c0,11.961,2.098,22.918,6.301,32.875c4.203,9.965,9.938,18.522,17.203,25.684c7.266,7.156,15.746,12.691,25.438,16.599
			c9.688,3.909,19.945,5.866,30.773,5.866c10.969,0,21.332-1.987,31.098-5.977c9.758-3.984,18.309-9.66,25.652-17.047
			c7.332-7.379,13.137-16.082,17.41-26.117c4.28-10.039,6.418-20.953,6.418-32.766C848.273,621.602,846.492,611.422,842.934,601.676
			z M815.371,659.504c-2.074,9.055-5.191,17.211-9.336,24.469c-4.146,7.25-9.328,12.535-15.543,17.134
			c-6.215,4.598-13.543,6.894-21.961,6.894c-8.426,0-15.82-2.078-22.16-6.25c-6.363-4.164-11.637-9.047-15.855-15.953
			c-4.215-6.895-7.387-14.875-9.526-23.926c-2.133-9.047-3.199-18.465-3.199-28.234c0-9.34,0.969-18.569,2.902-27.694
			c1.938-9.125,4.938-17.281,9.026-24.47c4.074-7.184,8.754-12.512,15.109-17.035c6.352-4.526,13.867-6.793,22.566-6.793
			c8.559,0,15.977,2.267,22.266,6.793c6.281,4.523,12.066,9.888,16.277,17.138c4.215,7.266,7.358,15.348,9.434,24.258
			c2.062,8.91,3.102,17.75,3.102,26.512C818.473,641.398,817.434,650.453,815.371,659.504z"/>
	</g>
	<path fill="#231F20" stroke="#231F20" stroke-miterlimit="10" d="M1067.316,562c0,0,9.03,0.043,18.27,0.504
		c9.25,0.457,18.031-1.164,26.353,9.16c8.323,10.324,15.102,25.117,15.102,25.117l3.039-0.879l-8.664-46.267
		c0,0-9.047,5.484-37.016,5.484c-27.965,0-27.965,0-59.228,0c-26.594,0-37.836-5.211-37.836-5.211l-6.992,45.992l3.435,0.895
		c0,0,9.047-32.238,32.901-33.883l23.759-0.728c0,0,0,78.207,0,110.16c0,26.824-1.509,32.353-17.642,34.812l-8.09,1.254v3.453
		c0,0,29.172-0.461,39.055-0.461c9.888,0,39.285,0.461,39.285,0.461v-3.453l-8.969-1.41c-13.672-2.608-16.898-4.914-16.898-35.934
		C1067.18,651.41,1067.316,562,1067.316,562z"/>
	<path fill="#231F20" stroke="#231F20" stroke-miterlimit="10" d="M912.07,707.001c-33.185,0-43.594-39.177-43.594-39.177h-4.345
		l0.461,43.168l2.754,0.211l3.599-7.074c0,0,16.074,9.574,40.477,9.574c29.185,0,57.328-17.379,57.328-45.965
		c0-24.646-12.215-38.802-46.77-50.191c-34.566-11.391-34.271-23.848-34.271-32.797c0-8.945,4.586-26.083,29.18-26.083
		c29.832,0,40.72,36.888,40.72,36.888h3.676v-41.266l-2.832-0.508l-4.527,8.578c0,0-13.254-10.005-35.43-10.005
		c-27.809,0-53.16,16.896-53.16,43.355c0,24.145,10.461,35.008,36.621,46.272c26.152,11.271,44.344,14.712,44.344,36.73
		S928.914,707.001,912.07,707.001z"/>
	<path fill="#231F20" stroke="#231F20" stroke-miterlimit="10" d="M446.809,462.379l-2.672-0.758
		c-2.804,5.598-5.908,10.268-8.897,14.295c-2.179,2.867-4.711,5.453-7.57,8.43c-2.571,2.677-5.04,4.825-7.445,6.561
		c-0.323,0.232-0.648,0.464-0.976,0.687c-9.602,6.521-18.25,6.48-28.45,6.48c-13.086,0-22.168-0.32-25.84-3.992
		c-3.68-3.684-5.707-7.975-5.707-24.291s0-42.89,0-42.89s5.195,0.055,14.816,0.383c9.625,0.32,17.621,0.858,24.109,8.535
		c6.488,7.676,10.293,22.4,10.293,22.4h2.867V389.5h-2.961c0,0-2.301,14.43-8.574,21.355c-6.266,6.918-13.297,7.776-24.863,8.319
		c-8.539,0.398-15.688,0.527-15.688,0.527v-63.715c8.344-1.836,19.867-2.383,24.52-2.383c4.648,0,16.977-0.216,24.98,3.676
		c7.777,3.785,16.016,12.147,27.789,26.84l2.973-1.148l-14.543-35.694c0,0-61.531,0.289-70.547,0.289
		c-9.359,0-43.648-0.461-43.648-0.461v3.444l8.035,1.375c10.141,2.375,13.328,4.646,13.328,34.691c0,0,0,48.348,0,78.574
		c0,31.727-4.27,32.594-13.328,34.69c-6.074,1.414-8.035,1.379-8.035,1.379v3.449c0,0,34.934-0.547,46.938-0.547
		c11.996,0,77.957,0.32,77.957,0.32l0.126-0.478l0.12,0.039L446.809,462.379z"/>
	<path fill="#231F20" stroke="#231F20" stroke-miterlimit="10" d="M899.076,488.664l6.877-26.281l-0.005-0.001l0.001-0.003
		l-0.149-0.043l-2.823-0.852c-3.246,6.686-5.846,10.696-8.84,14.73c-2.125,2.747-4.57,5.259-7.328,8.13
		c-2.57,2.677-5.039,4.825-7.444,6.561c-0.324,0.232-0.649,0.464-0.977,0.687c-9.601,6.521-18.25,6.48-28.45,6.48
		c-13.086,0-22.168-0.32-25.84-3.992c-3.68-3.684-5.707-7.975-5.707-24.291s0-42.89,0-42.89s5.195,0.055,14.816,0.383
		c9.625,0.319,17.621,0.858,24.109,8.535c2.414,2.855,4.457,6.689,6.07,10.378c2.483,6.236,3.745,12.022,3.745,12.022h0.478h2.866
		h0.005V389.5h-0.005h-2.961h-0.168c0,0-2.133,14.434-8.405,21.355c-2.352,2.594-4.81,4.336-7.571,5.529
		c-4.606,1.987-10.063,2.45-17.292,2.79c-6.493,0.304-12.173,0.45-14.526,0.503c-0.733,0.018-1.151,0.024-1.161,0.024v-63.715
		c8.344-1.836,19.867-2.384,24.521-2.384c4.647,0,16.977-0.215,24.979,3.677c7.03,3.422,14.447,10.603,24.503,22.8
		c1.082,1.396,2.186,2.84,3.329,4.38l2.926-1.484v-0.002l0.004-0.002l-8.5-20.866l-6.038-14.828h-0.005l0,0
		c0,0-61.53,0.289-70.547,0.289c-9.213,0-86.674-0.443-89.093-0.457c-0.038,0-0.058,0-0.058,0h-0.027v3.44l7.125,1.152
		c8.961,1.604,11.715,6.43,11.715,12.633c0,5.973-2.522,14.473-6.891,25.965l-33.084,81.45l-38.652-94.777
		c-2.065-4.819-3.676-11.022-3.676-14.938c0-5.512,3.219-8.953,12.867-10.562l6.664-0.922v-3.44c0,0-28.027,0.604-48.57,0.715
		c-2.07,0.012-4.074,0.02-5.961,0.02c-1.359,0-2.762,0-4.188-0.008c-0.133,0-0.267-0.008-0.402-0.008
		c-4.113-0.017-17.426-0.06-21.691-0.113c-16.461-0.207-32.125-0.604-32.125-0.604v3.44l4.363,0.691
		c14.934,2.754,19.527,7.812,19.988,34.922L592,460.75l-97.086-113.875c-6.434,0.461-15.848,0.695-22.973,0.695
		c-8.271,0-17-0.234-22.056-0.461v3.44l3.22,0.691c7.354,1.93,10.463,3.377,16.338,8.649l-0.086,0.021
		c6.633,5.281,5.69,15.301,5.69,15.301s0.035-0.074,0.086-0.176L475,465.422c-0.465,27.57-5.055,32.855-19.07,35.387l-2.758,0.453
		v3.449c5.055,0,19.461-0.461,27.957-0.461c8.5,0,24.129,0.461,28.488,0.461v-3.449l-4.359-0.688
		c-14.938-2.758-19.531-7.81-19.992-34.918l-0.69-90.062l105.759,124.239c4.833,0.5,4.182-0.572,9.706-0.166l1.016-113.272
		c0.105-6.301,0.445-11.397,1.06-15.608c1.176-11.344,9.744-16.239,13.151-17.473c1.812-0.656,4.11-0.68,5.609-0.203
		c1.625,0.516,4.5,2.641,8.147,10.02c1.295,2.618,3.656,7.738,5.646,12.543l56.578,132.023h3.776c0,0,6.832-11.98,17.816-38.109
		c10.988-26.129,38.375-91.461,38.375-91.461c0.332-0.789,0.664-1.523,1-2.262c0.945-2.379,5.293-12.832,10.863-19.273
		c2.867-3.315,6.747-4.567,12.505-5.048l0.717-0.033c10.827,0.17,14.972,5.555,14.979,35.039c0,0.025,0,0.049,0,0.074
		c0,0,0,48.34,0,78.57c0,31.727-4.271,32.594-13.328,34.69c-5.694,1.326-7.774,1.378-8.013,1.379c-0.016,0-0.022,0-0.022,0v3.449
		c0,0,0.034-0.001,0.101-0.002c2.062-0.031,35.217-0.541,46.842-0.541c12,0,77.952,0.32,77.952,0.32l0.13-0.474l0.112,0.035
		l0.001-0.005l0.003,0.001L899.076,488.664z"/>
</g>
</svg>
