<?xml version="1.0" encoding="utf-8"?>
<!-- Generator: Adobe Illustrator 16.0.4, SVG Export Plug-In . SVG Version: 6.00 Build 0)  -->
<!DOCTYPE svg PUBLIC "-//W3C//DTD SVG 1.1//EN" "http://www.w3.org/Graphics/SVG/1.1/DTD/svg11.dtd">
<svg version="1.1" id="Layer_1" xmlns="http://www.w3.org/2000/svg" xmlns:xlink="http://www.w3.org/1999/xlink" x="0px" y="0px"
	 width="80.507px" height="113px" viewBox="0 0 80.507 113" enable-background="new 0 0 80.507 113" xml:space="preserve">
<g>
	<path fill="#939BA0" d="M25.912,107.965h40.452v-2.021c0-2.464,1.743-8.054,3.43-13.459c2.291-7.347,4.661-14.941,4.661-19.914
		V58.046l-0.129-0.344c-2.407-6.425-8.227-9.012-12.923-9.361c-3.407-4.605-9.101-5.05-12.305-5.094
		c-2.266-2.382-5.972-3.722-11.05-3.996V23.018c0-4.461-3.63-8.091-8.091-8.091s-8.09,3.63-8.09,8.091v31.349v5.068
		c-2.515-2.304-6.004-4.844-9.403-5.148c-1.909-0.17-3.656,0.375-5.061,1.579c-4.685,4.017-0.143,10.958,5.609,19.746
		c5.748,8.779,12.899,19.708,12.899,30.332V107.965z M16.398,73.396c-4.104-6.271-8.349-12.755-6.361-14.458
		c0.581-0.498,1.239-0.693,2.064-0.623c3.369,0.301,7.825,4.681,9.766,6.908v4.337c0,1.104,0.896,2,2,2h0.044c1.104,0,2-0.896,2-2
		V54.366V23.018c0-2.23,1.814-4.045,4.046-4.045c2.229,0,4.045,1.814,4.045,4.045v19.215v1.011v14.181c0,1.104,0.896,2,2,2
		c1.15,0,2.046-0.896,2.046-2V43.307c4.616,0.28,6.933,1.513,8.09,2.706v11.411c0,1.104,0.896,2,2,2c1.149,0,2.045-0.896,2.045-2
		V47.327c2.682,0.137,6.102,0.765,8.09,3.612v10.529c0,1.104,0.896,2,2,2c1.149,0,2.045-0.896,2.045-2v-8.931
		c2.452,0.427,6.271,1.812,8.091,6.257V72.57c0,4.356-2.379,11.98-4.478,18.71c-1.564,5.019-2.958,9.485-3.437,12.64H29.885
		C29.104,92.809,22.094,82.1,16.398,73.396z"/>
	<path fill="#939BA0" d="M19.497,36.931c0.781-0.781,0.781-2.048,0-2.829c-2.786-2.785-4.32-6.489-4.32-10.429
		c0-8.134,6.617-14.75,14.75-14.75s14.75,6.616,14.75,14.75c0,3.939-1.534,7.644-4.32,10.429c-0.781,0.781-0.781,2.048,0,2.829
		c0.391,0.391,0.903,0.586,1.415,0.586s1.023-0.195,1.414-0.586c3.542-3.541,5.492-8.25,5.492-13.258
		c0-10.339-8.411-18.75-18.75-18.75s-18.75,8.411-18.75,18.75c0,5.008,1.951,9.717,5.492,13.258
		C17.449,37.711,18.715,37.712,19.497,36.931z"/>
</g>
<g>
	<path fill="#939BA0" d="M196.364,107.965v-2.021c0-2.464,1.743-8.054,3.43-13.459c2.291-7.347,4.661-14.941,4.661-19.914V58.046
		l-0.129-0.344c-2.407-6.425-8.227-9.012-12.923-9.361c-3.407-4.605-9.101-5.05-12.305-5.094c-2.266-2.382-5.972-3.722-11.05-3.996
		V23.018c0-4.461-3.63-8.091-8.091-8.091s-8.09,3.63-8.09,8.091v31.349v5.068c-2.515-2.304-6.004-4.844-9.403-5.148
		c-1.909-0.17-3.656,0.375-5.061,1.579c-4.685,4.017-0.143,10.958,5.609,19.746c5.748,8.779,12.899,19.708,12.899,30.332v2.021
		H196.364z M146.398,73.396c-4.104-6.271-8.349-12.755-6.361-14.458c0.581-0.498,1.239-0.693,2.064-0.623
		c3.369,0.301,7.825,4.681,9.766,6.908v4.337c0,1.104,0.896,2,2,2h0.044c1.104,0,2-0.896,2-2V54.366V23.018
		c0-2.23,1.814-4.045,4.046-4.045c2.229,0,4.045,1.814,4.045,4.045v19.215v1.011v14.181c0,1.104,0.896,2,2,2
		c1.15,0,2.046-0.896,2.046-2V43.307c4.616,0.28,6.933,1.513,8.09,2.706v11.411c0,1.104,0.896,2,2,2c1.149,0,2.045-0.896,2.045-2
		V47.327c2.682,0.137,6.102,0.765,8.09,3.612v10.529c0,1.104,0.896,2,2,2c1.149,0,2.045-0.896,2.045-2v-8.931
		c2.452,0.427,6.271,1.812,8.091,6.257V72.57c0,4.356-2.379,11.98-4.478,18.71c-1.564,5.019-2.958,9.485-3.437,12.64h-32.609
		C159.104,92.809,152.094,82.1,146.398,73.396z"/>
	<path fill="#939BA0" d="M170.355,36.931c0.391,0.391,0.903,0.586,1.415,0.586s1.023-0.195,1.414-0.586
		c3.542-3.541,5.492-8.25,5.492-13.258c0-10.339-8.411-18.75-18.75-18.75s-18.75,8.411-18.75,18.75
		c0,5.008,1.951,9.717,5.492,13.258c0.781,0.78,2.047,0.781,2.829,0c0.781-0.781,0.781-2.048,0-2.829
		c-2.786-2.785-4.32-6.489-4.32-10.429c0-8.134,6.617-14.75,14.75-14.75s14.75,6.616,14.75,14.75c0,3.939-1.534,7.644-4.32,10.429
		C169.574,34.883,169.574,36.149,170.355,36.931z"/>
	<path fill="#939BA0" d="M138.696,39.995c0.672,0.875,1.928,1.04,2.805,0.368c0.876-0.673,1.041-1.928,0.368-2.805
		c-2.564-3.338-4.146-7.338-4.576-11.566c-0.078-0.769-0.117-1.549-0.117-2.319c0-0.771,0.04-1.552,0.117-2.319
		c0.792-7.806,5.438-14.549,12.425-18.039c3.179-1.587,6.613-2.392,10.208-2.392s7.029,0.805,10.208,2.393
		c6.988,3.489,11.633,10.232,12.425,18.037c0.078,0.769,0.117,1.549,0.117,2.32c0,0.771-0.04,1.551-0.117,2.319
		c-0.43,4.229-2.012,8.229-4.576,11.566c-0.672,0.877-0.508,2.132,0.368,2.805c0.363,0.279,0.792,0.414,1.217,0.414
		c0.6,0,1.194-0.27,1.588-0.782c3.016-3.928,4.877-8.63,5.383-13.6c0.091-0.902,0.138-1.818,0.138-2.723
		c0-0.905-0.046-1.821-0.138-2.724c-0.932-9.178-6.396-17.107-14.618-21.213c-3.738-1.867-7.774-2.813-11.995-2.813
		s-8.256,0.946-11.995,2.813c-8.221,4.105-13.686,12.035-14.618,21.213c-0.091,0.902-0.138,1.818-0.138,2.724
		c0,0.904,0.046,1.82,0.138,2.724C133.819,31.365,135.68,36.067,138.696,39.995z"/>
</g>
<g>
	<path fill="#939BA0" d="M316.364,107.965v-2.021c0-2.464,1.742-8.054,3.43-13.459c2.291-7.347,4.66-14.941,4.66-19.914V58.046
		l-0.129-0.344c-2.406-6.425-8.227-9.012-12.922-9.361c-3.408-4.605-9.102-5.05-12.305-5.094c-2.266-2.382-5.972-3.722-11.05-3.996
		V23.018c0-4.461-3.629-8.091-8.09-8.091s-8.092,3.63-8.092,8.091v31.349v5.068c-2.515-2.304-6.004-4.844-9.402-5.148
		c-1.909-0.17-3.656,0.375-5.061,1.579c-4.686,4.017-0.143,10.958,5.609,19.746c5.747,8.779,12.898,19.708,12.898,30.332v2.021
		H316.364z M266.398,73.396c-4.104-6.271-8.349-12.755-6.361-14.458c0.582-0.498,1.239-0.693,2.064-0.623
		c3.369,0.301,7.825,4.681,9.766,6.908v4.337c0,1.104,0.896,2,2,2h0.045c1.105,0,2-0.896,2-2V54.366V23.018
		c0-2.23,1.814-4.045,4.047-4.045c2.229,0,4.045,1.814,4.045,4.045v19.215v1.011v14.181c0,1.104,0.895,2,2,2
		c1.15,0,2.045-0.896,2.045-2V43.307c4.617,0.28,6.933,1.513,8.089,2.706v11.411c0,1.104,0.896,2,2,2c1.15,0,2.045-0.896,2.045-2
		V47.327c2.682,0.137,6.102,0.765,8.09,3.612v10.529c0,1.104,0.896,2,2,2c1.15,0,2.045-0.896,2.045-2v-8.931
		c2.453,0.427,6.271,1.812,8.092,6.257V72.57c0,4.356-2.379,11.98-4.479,18.71c-1.564,5.019-2.957,9.485-3.436,12.64h-32.608
		C279.105,92.809,272.096,82.1,266.398,73.396z"/>
	<path fill="#939BA0" d="M247.074,38.288h-3.084c0-0.632,0.033-1.271,0.096-1.897c0.648-6.384,4.447-11.898,10.162-14.752
		c2.6-1.299,5.408-1.957,8.349-1.957v3.083l8.804-5.083l-8.804-5.083v3.083c-3.565,0-6.976,0.8-10.136,2.378
		c-6.949,3.47-11.566,10.171-12.354,17.928c-0.078,0.761-0.117,1.535-0.117,2.301h-3.082l5.082,8.804L247.074,38.288z"/>
</g>
<g>
	<path fill="#939BA0" d="M454.454,58.046l-0.129-0.344c-2.406-6.425-8.227-9.012-12.922-9.361c-3.408-4.605-9.102-5.05-12.305-5.094
		c-2.266-2.382-5.973-3.722-11.051-3.996V23.018c0-4.461-3.629-8.091-8.09-8.091s-8.09,3.63-8.09,8.091v31.349v5.068
		c-2.516-2.304-6.006-4.844-9.404-5.148c-1.908-0.17-3.656,0.375-5.061,1.579c-4.684,4.017-0.143,10.958,5.609,19.746
		c5.748,8.779,12.898,19.708,12.898,30.332v2.021h40.453v-2.021c0-2.464,1.742-8.054,3.43-13.459
		c2.291-7.347,4.66-14.941,4.66-19.914V58.046z M450.409,72.57c0,4.356-2.379,11.98-4.479,18.71
		c-1.564,5.019-2.957,9.485-3.436,12.64h-32.609c-0.781-11.111-7.791-21.82-13.488-30.524c-4.104-6.271-8.348-12.755-6.359-14.458
		c0.58-0.498,1.238-0.693,2.064-0.623c3.369,0.301,7.824,4.681,9.766,6.908v4.337c0,1.104,0.895,2,2,2h0.043c1.105,0,2-0.896,2-2
		V54.366V23.018c0-2.23,1.814-4.045,4.047-4.045c2.229,0,4.045,1.814,4.045,4.045v19.215v1.011v14.181c0,1.104,0.895,2,2,2
		c1.15,0,2.045-0.896,2.045-2V43.307c4.617,0.28,6.934,1.513,8.09,2.706v11.411c0,1.104,0.896,2,2,2c1.15,0,2.045-0.896,2.045-2
		V47.327c2.682,0.137,6.102,0.765,8.09,3.612v10.529c0,1.104,0.896,2,2,2c1.15,0,2.045-0.896,2.045-2v-8.931
		c2.453,0.427,6.271,1.812,8.092,6.257V72.57z"/>
	<path fill="#939BA0" d="M389.862,9.516h32.961c1.105,0,2-0.896,2-2s-0.895-2-2-2h-32.961V2.432l-8.803,5.083l8.803,5.084V9.516z"/>
</g>
<g>
	<path fill="#939BA0" d="M326.526,220.702c-2.406-6.425-8.227-9.012-12.922-9.361c-3.408-4.605-9.102-5.05-12.305-5.094
		c-2.266-2.382-5.973-3.722-11.051-3.996v-16.233c0-4.461-3.629-8.091-8.09-8.091s-8.091,3.63-8.091,8.091v31.349v5.068
		c-2.515-2.304-6.005-4.844-9.403-5.148c-1.908-0.17-3.656,0.375-5.061,1.579c-4.685,4.017-0.143,10.958,5.609,19.746
		c5.748,8.778,12.898,19.708,12.898,30.331v2.021h40.453v-2.021c0-2.463,1.742-8.053,3.43-13.459
		c2.291-7.346,4.66-14.94,4.66-19.913v-14.524L326.526,220.702z M322.61,235.57c0,4.356-2.379,11.979-4.479,18.71
		c-1.564,5.018-2.957,9.484-3.436,12.639h-32.609c-0.781-11.111-7.791-21.82-13.488-30.523c-4.104-6.271-8.348-12.755-6.36-14.458
		c0.581-0.498,1.239-0.693,2.064-0.623c3.369,0.301,7.825,4.681,9.766,6.908v4.337c0,1.104,0.896,2,2,2h0.044c1.105,0,2-0.896,2-2
		v-15.193v-31.349c0-2.23,1.814-4.045,4.047-4.045c2.229,0,4.045,1.814,4.045,4.045v19.215v1.011v14.181c0,1.104,0.895,2,2,2
		c1.15,0,2.045-0.896,2.045-2v-14.117c4.617,0.28,6.934,1.513,8.09,2.706v11.411c0,1.104,0.896,2,2,2c1.15,0,2.045-0.896,2.045-2
		v-10.097c2.682,0.137,6.102,0.765,8.09,3.612v10.529c0,1.104,0.896,2,2,2c1.15,0,2.045-0.896,2.045-2v-8.931
		c2.453,0.427,6.271,1.812,8.092,6.257V235.57z"/>
	<path fill="#939BA0" d="M263.975,203.73c1.104,0,2-0.896,2-2v-32.962h3.084l-5.083-8.803l-5.084,8.803h3.083v32.962
		C261.975,202.835,262.87,203.73,263.975,203.73z"/>
</g>
<g>
	<path fill="#939BA0" d="M193.604,211.341c-3.408-4.605-9.102-5.05-12.305-5.094c-2.266-2.382-5.973-3.722-11.051-3.996v-16.233
		c0-4.461-3.629-8.091-8.09-8.091s-8.091,3.63-8.091,8.091v31.349v5.068c-2.515-2.304-6.005-4.844-9.403-5.148
		c-1.908-0.17-3.656,0.375-5.061,1.579c-4.685,4.017-0.143,10.958,5.609,19.746c5.748,8.778,12.898,19.708,12.898,30.331v2.021
		h40.453v-2.021c0-2.463,1.742-8.053,3.43-13.459c2.291-7.346,4.66-14.94,4.66-19.913v-14.524l-0.129-0.344
		C204.12,214.277,198.3,211.69,193.604,211.341z M202.61,235.57c0,4.356-2.379,11.979-4.479,18.71
		c-1.564,5.018-2.957,9.484-3.436,12.639h-32.609c-0.781-11.111-7.791-21.82-13.488-30.523c-4.104-6.271-8.348-12.755-6.36-14.458
		c0.581-0.498,1.239-0.693,2.064-0.623c3.369,0.301,7.825,4.681,9.766,6.908v4.337c0,1.104,0.896,2,2,2h0.044c1.105,0,2-0.896,2-2
		v-15.193v-31.349c0-2.23,1.814-4.045,4.047-4.045c2.229,0,4.045,1.814,4.045,4.045v19.215v1.011v14.181c0,1.104,0.895,2,2,2
		c1.15,0,2.045-0.896,2.045-2v-14.117c4.617,0.28,6.934,1.513,8.09,2.706v11.411c0,1.104,0.896,2,2,2c1.15,0,2.045-0.896,2.045-2
		v-10.097c2.682,0.137,6.102,0.765,8.09,3.612v10.529c0,1.104,0.896,2,2,2c1.15,0,2.045-0.896,2.045-2v-8.931
		c2.453,0.427,6.271,1.812,8.092,6.257V235.57z"/>
	<path fill="#939BA0" d="M143.975,201.73l5.084-8.803h-3.083v-32.962c0-1.104-0.896-2-2-2s-2,0.896-2,2v32.962h-3.084
		L143.975,201.73z"/>
</g>
<g>
	<path fill="#939BA0" d="M63.604,211.34c-3.408-4.605-9.102-5.05-12.305-5.094c-2.266-2.382-5.973-3.722-11.051-3.996v-16.233
		c0-4.461-3.629-8.091-8.09-8.091s-8.091,3.63-8.091,8.091v31.349v5.068c-2.515-2.304-6.005-4.844-9.403-5.148
		c-1.908-0.17-3.656,0.375-5.061,1.579c-4.685,4.017-0.143,10.958,5.609,19.746c5.748,8.779,12.898,19.708,12.898,30.332v2.021
		h40.453v-2.021c0-2.464,1.742-8.054,3.43-13.459c2.291-7.347,4.66-14.941,4.66-19.914v-14.524l-0.129-0.344
		C74.12,214.276,68.3,211.689,63.604,211.34z M72.61,235.569c0,4.356-2.379,11.98-4.479,18.71c-1.564,5.019-2.957,9.485-3.436,12.64
		H32.087c-0.781-11.111-7.791-21.82-13.488-30.524c-4.104-6.271-8.348-12.755-6.36-14.458c0.581-0.498,1.239-0.693,2.064-0.623
		c3.369,0.301,7.825,4.681,9.766,6.908v4.337c0,1.104,0.896,2,2,2h0.044c1.105,0,2-0.896,2-2v-15.193v-31.349
		c0-2.23,1.814-4.045,4.047-4.045c2.229,0,4.045,1.814,4.045,4.045v19.215v1.011v14.181c0,1.104,0.895,2,2,2
		c1.15,0,2.045-0.896,2.045-2v-14.117c4.617,0.28,6.934,1.513,8.09,2.706v11.411c0,1.104,0.896,2,2,2c1.15,0,2.045-0.896,2.045-2
		v-10.097c2.682,0.137,6.102,0.765,8.09,3.612v10.529c0,1.104,0.896,2,2,2c1.15,0,2.045-0.896,2.045-2v-8.931
		c2.453,0.427,6.271,1.812,8.092,6.257V235.569z"/>
	<polygon fill="#939BA0" points="12.062,172.515 45.024,172.515 45.024,175.598 53.827,170.515 45.024,165.432 45.024,168.515 
		12.062,168.515 12.062,165.432 3.26,170.515 12.062,175.598 	"/>
</g>
<g>
	<path fill="#939BA0" d="M317.456,400.29c-3.408-4.605-9.102-5.05-12.305-5.094c-2.266-2.382-5.973-3.722-11.051-3.996v-16.233
		c0-4.461-3.629-8.091-8.09-8.091s-8.091,3.63-8.091,8.091v31.349v5.068c-2.515-2.304-6.005-4.844-9.403-5.148
		c-1.908-0.17-3.656,0.375-5.061,1.579c-4.685,4.017-0.143,10.958,5.609,19.746c5.748,8.779,12.898,19.709,12.898,30.332v2.021
		h40.453v-2.021c0-2.463,1.742-8.053,3.43-13.459c2.291-7.346,4.66-14.941,4.66-19.914v-14.524l-0.129-0.344
		C327.972,403.227,322.151,400.64,317.456,400.29z M326.462,424.52c0,4.356-2.379,11.98-4.479,18.711
		c-1.564,5.018-2.957,9.484-3.436,12.639h-32.609c-0.781-11.111-7.791-21.82-13.488-30.524c-4.104-6.271-8.348-12.755-6.36-14.458
		c0.581-0.498,1.239-0.693,2.064-0.623c3.369,0.301,7.825,4.681,9.766,6.908v4.337c0,1.104,0.896,2,2,2h0.044c1.105,0,2-0.896,2-2
		v-15.193v-31.349c0-2.23,1.814-4.045,4.047-4.045c2.229,0,4.045,1.814,4.045,4.045v19.215v1.011v14.181c0,1.104,0.895,2,2,2
		c1.15,0,2.045-0.896,2.045-2v-14.117c4.617,0.28,6.934,1.513,8.09,2.706v11.411c0,1.104,0.896,2,2,2c1.15,0,2.045-0.896,2.045-2
		v-10.097c2.682,0.137,6.102,0.765,8.09,3.612v10.529c0,1.104,0.896,2,2,2c1.15,0,2.045-0.896,2.045-2v-8.931
		c2.453,0.427,6.271,1.812,8.092,6.257V424.52z"/>
	<polygon fill="#939BA0" points="268.726,355.317 268.726,369.798 265.643,369.798 270.726,378.601 275.81,369.798 272.726,369.798 
		272.726,355.317 287.207,355.317 287.207,358.4 296.01,353.317 287.207,348.234 287.207,351.317 272.726,351.317 272.726,336.836 
		275.81,336.836 270.727,328.033 265.643,336.836 268.726,336.836 268.726,351.317 254.245,351.317 254.245,348.234 
		245.442,353.316 254.245,358.4 254.245,355.317 	"/>
</g>
<g>
	<path fill="#939BA0" d="M197.455,400.29c-3.407-4.605-9.101-5.05-12.305-5.094c-2.266-2.382-5.972-3.722-11.05-3.996v-16.233
		c0-4.461-3.63-8.091-8.091-8.091s-8.09,3.63-8.09,8.091v31.349v5.068c-2.515-2.304-6.004-4.844-9.403-5.148
		c-1.909-0.17-3.656,0.375-5.061,1.579c-4.685,4.017-0.143,10.958,5.609,19.746c5.748,8.779,12.899,19.709,12.899,30.332v2.021
		h40.452v-2.021c0-2.463,1.743-8.053,3.43-13.459c2.291-7.346,4.661-14.941,4.661-19.914v-14.524l-0.129-0.344
		C207.971,403.227,202.151,400.64,197.455,400.29z M206.461,424.52c0,4.356-2.379,11.98-4.478,18.711
		c-1.564,5.018-2.958,9.484-3.437,12.639h-32.609c-0.781-11.111-7.791-21.82-13.487-30.524c-4.104-6.271-8.349-12.755-6.361-14.458
		c0.581-0.498,1.239-0.693,2.064-0.623c3.369,0.301,7.825,4.681,9.766,6.908v4.337c0,1.104,0.896,2,2,2h0.044c1.104,0,2-0.896,2-2
		v-15.193v-31.349c0-2.23,1.814-4.045,4.046-4.045c2.229,0,4.045,1.814,4.045,4.045v19.215v1.011v14.181c0,1.104,0.896,2,2,2
		c1.15,0,2.046-0.896,2.046-2v-14.117c4.616,0.28,6.933,1.513,8.09,2.706v11.411c0,1.104,0.896,2,2,2c1.149,0,2.045-0.896,2.045-2
		v-10.097c2.682,0.137,6.102,0.765,8.09,3.612v10.529c0,1.104,0.896,2,2,2c1.149,0,2.045-0.896,2.045-2v-8.931
		c2.452,0.427,6.271,1.812,8.091,6.257V424.52z"/>
	<path fill="#939BA0" d="M147.228,375.622c0,5.009,1.951,9.717,5.492,13.259c0.781,0.779,2.047,0.78,2.829-0.001
		c0.781-0.781,0.781-2.048,0-2.829c-2.786-2.785-4.32-6.488-4.32-10.429c0-8.134,6.617-14.75,14.75-14.75s14.75,6.616,14.75,14.75
		c0,3.94-1.534,7.644-4.32,10.429c-0.781,0.781-0.781,2.048,0,2.829c0.391,0.391,0.903,0.586,1.415,0.586s1.023-0.195,1.414-0.585
		c3.542-3.542,5.492-8.25,5.492-13.259c0-10.339-8.411-18.75-18.75-18.75S147.228,365.283,147.228,375.622z"/>
	<polygon fill="#939BA0" points="143.512,367.598 143.512,353.117 157.994,353.117 157.994,356.199 166.796,351.117 
		157.994,346.033 157.994,349.117 143.512,349.117 143.512,334.635 146.596,334.635 141.513,325.832 136.429,334.635 
		139.512,334.635 139.512,349.117 125.032,349.117 125.032,346.033 116.229,351.116 125.032,356.199 125.032,353.117 
		139.512,353.117 139.512,367.598 136.429,367.598 141.512,376.4 146.596,367.598 	"/>
</g>
<g>
	<path fill="#939BA0" d="M67.455,400.29c-3.407-4.605-9.101-5.05-12.305-5.094c-2.266-2.382-5.972-3.722-11.05-3.996v-16.233
		c0-4.461-3.63-8.091-8.091-8.091s-8.09,3.63-8.09,8.091v31.349v5.068c-2.515-2.304-6.004-4.844-9.403-5.148
		c-1.909-0.17-3.656,0.375-5.061,1.579c-4.685,4.017-0.143,10.958,5.609,19.746c5.748,8.779,12.899,19.709,12.899,30.332v2.021
		h40.452v-2.021c0-2.463,1.743-8.053,3.43-13.459c2.291-7.346,4.661-14.941,4.661-19.914v-14.524l-0.129-0.344
		C77.971,403.227,72.151,400.64,67.455,400.29z M76.461,424.52c0,4.356-2.379,11.98-4.478,18.711
		c-1.564,5.018-2.958,9.484-3.437,12.639H35.938c-0.781-11.111-7.791-21.82-13.487-30.524c-4.104-6.271-8.349-12.755-6.361-14.458
		c0.581-0.498,1.239-0.693,2.064-0.623c3.369,0.301,7.825,4.681,9.766,6.908v4.337c0,1.104,0.896,2,2,2h0.044c1.104,0,2-0.896,2-2
		v-15.193v-31.349c0-2.23,1.814-4.045,4.046-4.045c2.229,0,4.045,1.814,4.045,4.045v19.215v1.011v14.181c0,1.104,0.896,2,2,2
		c1.15,0,2.046-0.896,2.046-2v-14.117c4.616,0.28,6.933,1.513,8.09,2.706v11.411c0,1.104,0.896,2,2,2c1.149,0,2.045-0.896,2.045-2
		v-10.097c2.682,0.137,6.102,0.765,8.09,3.612v10.529c0,1.104,0.896,2,2,2c1.149,0,2.045-0.896,2.045-2v-8.931
		c2.452,0.427,6.271,1.812,8.091,6.257V424.52z"/>
	<path fill="#939BA0" d="M46.407,388.88c0.391,0.391,0.903,0.586,1.415,0.586s1.023-0.195,1.414-0.585
		c3.542-3.542,5.492-8.25,5.492-13.259c0-10.339-8.411-18.75-18.75-18.75s-18.75,8.411-18.75,18.75
		c0,5.009,1.951,9.717,5.492,13.259c0.781,0.779,2.047,0.78,2.829-0.001c0.781-0.781,0.781-2.048,0-2.829
		c-2.786-2.785-4.32-6.488-4.32-10.429c0-8.134,6.617-14.75,14.75-14.75s14.75,6.616,14.75,14.75c0,3.94-1.534,7.644-4.32,10.429
		C45.626,386.832,45.626,388.099,46.407,388.88z"/>
	<path fill="#939BA0" d="M17.553,392.312c0.876-0.672,1.041-1.928,0.368-2.805c-2.564-3.338-4.146-7.338-4.576-11.566
		c-0.078-0.768-0.117-1.549-0.117-2.319s0.04-1.552,0.117-2.319c0.792-7.806,5.438-14.549,12.425-18.039
		c3.179-1.587,6.613-2.392,10.208-2.392s7.029,0.805,10.208,2.393c6.988,3.489,11.633,10.232,12.425,18.038
		c0.078,0.768,0.117,1.549,0.117,2.319s-0.04,1.552-0.117,2.319c-0.43,4.229-2.012,8.229-4.576,11.566
		c-0.672,0.877-0.508,2.133,0.368,2.805c0.363,0.279,0.792,0.414,1.217,0.414c0.6,0,1.194-0.27,1.588-0.781
		c3.016-3.929,4.877-8.631,5.383-13.6c0.091-0.902,0.138-1.818,0.138-2.724s-0.046-1.821-0.138-2.724
		c-0.932-9.178-6.396-17.107-14.618-21.213c-3.738-1.867-7.774-2.813-11.995-2.813s-8.256,0.946-11.995,2.813
		c-8.221,4.105-13.686,12.035-14.618,21.213c-0.091,0.902-0.138,1.818-0.138,2.724s0.046,1.821,0.138,2.724
		c0.505,4.969,2.367,9.671,5.383,13.6C15.421,392.82,16.676,392.985,17.553,392.312z"/>
	<polygon fill="#939BA0" points="6.628,362.514 6.628,348.033 21.109,348.033 21.109,351.117 29.912,346.033 21.109,340.95 
		21.109,344.033 6.628,344.033 6.628,329.553 9.712,329.553 4.629,320.75 -0.455,329.553 2.628,329.553 2.628,344.033 
		-11.853,344.033 -11.853,340.95 -20.655,346.033 -11.853,351.117 -11.853,348.033 2.628,348.033 2.628,362.514 -0.455,362.514 
		4.628,371.316 9.712,362.514 	"/>
</g>
<g>
	<path fill="#939BA0" d="M408.112,268.942v2.021h40.453v-2.021c0-2.463,1.742-8.053,3.43-13.459c2.291-7.346,4.66-14.94,4.66-19.913
		v-14.524l-0.129-0.344c-2.406-6.425-8.227-9.012-12.922-9.361c-3.408-4.605-9.102-5.05-12.305-5.094
		c-2.266-2.382-5.973-3.722-11.051-3.996v-16.233c0-4.461-3.629-8.091-8.09-8.091s-8.091,3.63-8.091,8.091v31.349v5.068
		c-2.515-2.304-6.005-4.844-9.403-5.148c-1.908-0.17-3.656,0.375-5.061,1.579c-4.685,4.017-0.143,10.958,5.609,19.746
		C400.962,247.39,408.112,258.319,408.112,268.942z M392.238,221.938c0.581-0.498,1.239-0.693,2.064-0.623
		c3.369,0.301,7.825,4.681,9.766,6.908v4.337c0,1.104,0.896,2,2,2h0.044c1.105,0,2-0.896,2-2v-15.193v-31.349
		c0-2.23,1.814-4.045,4.047-4.045c2.229,0,4.045,1.814,4.045,4.045v19.215v1.011v14.181c0,1.104,0.895,2,2,2
		c1.15,0,2.045-0.896,2.045-2v-14.117c4.617,0.28,6.934,1.513,8.09,2.706v11.411c0,1.104,0.896,2,2,2c1.15,0,2.045-0.896,2.045-2
		v-10.097c2.682,0.137,6.102,0.765,8.09,3.612v10.529c0,1.104,0.896,2,2,2c1.15,0,2.045-0.896,2.045-2v-8.931
		c2.453,0.427,6.271,1.812,8.092,6.257v13.775c0,4.356-2.379,11.979-4.479,18.71c-1.564,5.018-2.957,9.484-3.436,12.639h-32.609
		c-0.781-11.111-7.791-21.82-13.488-30.523C394.495,230.125,390.251,223.641,392.238,221.938z"/>
	<polygon fill="#939BA0" points="397.881,183.237 397.881,183.237 400.062,185.417 402.691,175.599 392.872,178.229 
		395.053,180.409 395.053,180.409 371.745,203.717 369.564,201.536 366.935,211.354 376.754,208.725 374.573,206.545 	"/>
</g>
<g>
	<path fill="#939BA0" d="M456.526,410.815c-2.406-6.426-8.227-9.012-12.922-9.361c-3.042-4.111-7.901-4.905-11.188-5.06v-24.098
		c0-4.461-3.629-8.09-8.09-8.09c-3.469,0-6.426,2.198-7.574,5.271c-1.306-0.905-2.888-1.438-4.593-1.438
		c-4.461,0-8.091,3.629-8.091,8.09v31.35v5.068c-2.515-2.305-6.005-4.844-9.403-5.148c-1.908-0.17-3.656,0.375-5.061,1.578
		c-4.685,4.018-0.143,10.959,5.609,19.746c5.748,8.779,12.898,19.709,12.898,30.332v2.021h40.453v-2.021
		c0-2.463,1.742-8.053,3.43-13.459c2.291-7.346,4.66-14.941,4.66-19.914v-14.523L456.526,410.815z M452.61,425.683
		c0,4.357-2.379,11.98-4.479,18.711c-1.564,5.018-2.957,9.484-3.436,12.639h-32.609c-0.781-11.111-7.791-21.82-13.488-30.523
		c-4.104-6.271-8.348-12.756-6.36-14.459c0.581-0.498,1.239-0.693,2.064-0.623c3.369,0.301,7.825,4.682,9.766,6.908v4.338
		c0,1.104,0.896,2,2,2c1.149,0,2.044-0.896,2.044-2v-15.193v-31.35c0-2.23,1.814-4.045,4.047-4.045c2.229,0,4.045,1.814,4.045,4.045
		v19.215v1.012v14.18c0,1.105,0.895,2,2,2c1.15,0,2.045-0.895,2.045-2v-4.312v-9.805v-4.055v-4.182v-0.459
		c0.03,0,0.03-15.427,0.03-15.427c0-2.23,1.814-4.045,4.047-4.045c2.229,0,4.045,1.814,4.045,4.045v15.427v6.521v11.979
		c-0.032,0-0.032,4.312-0.032,4.312c0,1.105,0.896,2,2,2c1.15,0,2.045-0.895,2.045-2v-7.188c0.032,0,0.032-2.906,0.032-2.906
		c2.677,0.141,6.077,0.772,8.058,3.609v10.529c0,1.105,0.896,2,2,2c1.15,0,2.045-0.895,2.045-2v-8.93
		c2.453,0.426,6.271,1.811,8.092,6.256V425.683z"/>
	<path fill="#939BA0" d="M397.607,382.09c1.104,0,2-0.896,2-2v-32.962h3.084l-5.083-8.803l-5.084,8.803h3.083v32.962
		C395.607,381.194,396.503,382.09,397.607,382.09z"/>
</g>
</svg>
